<!-- Copyright © 2000–2024 JetBrains s.r.o. -->
<svg width="16" height="16" viewBox="0 0 16 16" xmlns="http://www.w3.org/2000/svg">
  <path fill="#EBECF0" d="M9 10c0-1.24 1.04-2 2-2 .37 0 .73.11 1.05.3l2.44 1.52V4.49c0-1.1-.9-2-2-2H3.5c-1.1 0-2 .9-2 2v7c0 1.1.9 2 2 2H9v-3.5z"/>
  <path fill="none" stroke="#6C707E" stroke-linecap="round" stroke-linejoin="round" d="M1.5 5.5h13M4 7.5h8m-8 2h4.55M4 11.5h4.5m0 2h-5c-1.1 0-2-.9-2-2v-7c0-1.1.9-2 2-2h9c1.1 0 2 .9 2 2v4.74"/>
  <path fill="#208A3C" fill-rule="evenodd" d="m15.53 11.65-4-2.5A1 1 0 0 0 11 9c-.48 0-1 .38-1 1v5c0 .62.52 1 1 1 .19 0 .36-.05.53-.15l4-2.5c.3-.19.47-.5.47-.85s-.17-.66-.47-.85"/>
</svg>
